<svg id="LOGO_FINISH" data-name="LOGO FINISH" xmlns="http://www.w3.org/2000/svg" viewBox="0 0 62.35 62.83">
  <title>Smartapaga-logo</title>
  <g>
    <path d="M54.35,38.22l0-.06h0l-6-10.42-2,1.15,6.06,10.46h0v0a3.05,3.05,0,1,1-5.29,3.05l0-.05h0l-2.85-4.91h-13l1.33-1.66a.52.52,0,0,0-.75-.68l-4.73,3a.52.52,0,0,0,0,.88l4.74,3.06a.52.52,0,0,0,.74-.68l-1.31-1.66H42.84L45,43.56h0l0,0a5.37,5.37,0,0,0,9.3-5.36Z" transform="translate(-0.81 -0.58)" style="fill: #0f8040"/>
    <path d="M27.86,32H41.37l-11-17.83h0l0,0a3.05,3.05,0,0,1,5.29-3.05l0,.06h0l6.72,11.61-2-.3a.53.53,0,0,0-.23,1l5,2.57a.53.53,0,0,0,.77-.44L46.3,20a.53.53,0,0,0-1-.31l-.85,2.09L37.6,9.86h0a5.36,5.36,0,0,0-9.28,5.38h0l0,0h0l0,.06h0L37.3,29.71H26.43v0L19,42.67h0l0,0h0a3.05,3.05,0,0,1-5.22-3.17l0,0-.05,0,.05,0,11.1-19.17.78,1.9a.52.52,0,0,0,1-.32l-.36-5.61a.53.53,0,0,0-.77-.43l-5,2.63a.52.52,0,0,0,.23,1l2.17-.34L11.75,38.3h0l0,.05A5.37,5.37,0,0,0,20.85,44h0l0-.06,0,0,0-.05h0Z" transform="translate(-0.81 -0.58)" style="fill: #0f8040"/>
  </g>
  <path d="M1.93,42.36H4.38a41.47,41.47,0,0,0,1.84,3.85,33.3,33.3,0,0,0,6,7.4,29.72,29.72,0,0,0,12,6.53,28.49,28.49,0,0,0,6.22,1s1,.06,2.9,0a28.07,28.07,0,0,0,5.2-.73,29.74,29.74,0,0,0,5.29-1.74,31.49,31.49,0,0,0,7.38-4.68,30.19,30.19,0,0,0,3.86-4.06c1.12-1.45,1.78-2.52,1.78-2.52a29,29,0,0,0,2.37-4.77,24.92,24.92,0,0,0,1.31-4.76,16.64,16.64,0,0,0,.31-2.91,2.74,2.74,0,0,0-.36-1.28,3.22,3.22,0,0,0-1-1.07,2.76,2.76,0,0,0-.83-.39A3.61,3.61,0,0,0,57.31,32l-4.66,0c-.06-.09-1-1.61-1.4-2.31,2,0,6.53,0,7.39.06a5.25,5.25,0,0,1,2.18.85,5.18,5.18,0,0,1,1.7,1.89,6.72,6.72,0,0,1,.4.94,6.44,6.44,0,0,1,.13,3,31.55,31.55,0,0,1-1.77,7.13,30.61,30.61,0,0,1-2.64,5.18,32.6,32.6,0,0,1-3,4,32.36,32.36,0,0,1-6.41,5.48,29.91,29.91,0,0,1-4.62,2.46c-1,.42-1.88.76-2.84,1.08-.62.2-1.34.39-2,.55a30.71,30.71,0,0,1-4.72.83,29.37,29.37,0,0,1-4,.17c-.84,0-1.66,0-2.45-.13a29.82,29.82,0,0,1-5.09-.92,30.94,30.94,0,0,1-4.47-1.59,32.76,32.76,0,0,1-4-2.18c-.84-.53-1.67-1.09-2.43-1.68a35.37,35.37,0,0,1-3.77-3.38,33.11,33.11,0,0,1-3.32-4.15,33.52,33.52,0,0,1-2.27-3.82A21,21,0,0,1,1.93,42.36Z" transform="translate(-0.81 -0.58)" style="fill: #0f8040"/>
  <path d="M60.19,18.32A33.44,33.44,0,0,0,58,14.46a33.93,33.93,0,0,0-3.32-4.09A35,35,0,0,0,50.91,7c-.75-.59-1.52-1.09-2.35-1.62-.31-.2-.68-.44-1-.61-1.06-.58-2.11-1.11-3.09-1.55a28.3,28.3,0,0,0-4.39-1.55A28.07,28.07,0,0,0,35.14.75C34.36.68,33.44.61,32.6.59a30.13,30.13,0,0,0-3.91.14,32.44,32.44,0,0,0-4.64.81c-.62.17-.93.23-1.55.43-.95.32-2,.7-3,1.12-.5.21-1.17.5-1.64.76-1.07.57-2.16,1.14-3.15,1.79A28.32,28.32,0,0,0,11.46,8a33.69,33.69,0,0,0-3.07,3c-.35.39-.75.83-1.07,1.25a33.78,33.78,0,0,0-2,2.78,31.54,31.54,0,0,0-2.68,5.17c-.12.29-.33.86-.48,1.29C2.06,21.74,2,22,2,22c-.16.52-.32,1-.45,1.45s-.21.76-.28,1.1-.12.53-.18.77a4.44,4.44,0,0,0,0,2.93,9,9,0,0,0,.43.94,5.13,5.13,0,0,0,1.7,1.87,5.45,5.45,0,0,0,2.2.87c.74.09,5.52,0,8.12,0,.1-.15,1.29-2.1,1.4-2.29-2.37,0-7.43,0-8.19,0a4,4,0,0,1-1.35-.13,2.74,2.74,0,0,1-.85-.37,3.16,3.16,0,0,1-1-1.09,2.91,2.91,0,0,1-.36-1.29,2.2,2.2,0,0,1,0-.36,25.58,25.58,0,0,1,.63-2.61,12.34,12.34,0,0,1,.49-1.49c.09-.25.13-.43.19-.57s.15-.36.21-.52A25.4,25.4,0,0,1,7.1,16.53,28.79,28.79,0,0,1,12.68,10a33.29,33.29,0,0,1,4.78-3.37A23.37,23.37,0,0,1,20,5.36a28.94,28.94,0,0,1,5.2-1.73,27.21,27.21,0,0,1,5.16-.71,23.25,23.25,0,0,1,2.87,0,27.65,27.65,0,0,1,6.11.94,30.24,30.24,0,0,1,7.12,3,31,31,0,0,1,4.81,3.46,27.72,27.72,0,0,1,2.8,2.9,28.6,28.6,0,0,1,3.16,4.52c.33.61.62,1.2.87,1.71.78,0,1.93,0,2.51,0A10.49,10.49,0,0,0,60.19,18.32Z" transform="translate(-0.81 -0.58)" style="fill: #9fcd50"/>
</svg>
